<svg version="1.0" xmlns="http://www.w3.org/2000/svg" width="500.000000pt" height="500.000000pt" viewBox="0 0 500.000000 500.000000" preserveAspectRatio="xMidYMid meet">

<g transform="translate(0.000000,500.000000) scale(0.100000,-0.100000)" fill="#FFFF" stroke="none">
<path d="M2390 4038 c-72 -37 -86 -74 -99 -254 -5 -83 -7 -161 -4 -173 7 -29
-4 -27 -66 16 -161 108 -465 222 -664 249 l-46 7 -3 -94 -3 -94 -45 2 c-25 1
-59 0 -77 -3 -67 -10 -63 30 -63 -670 l0 -634 28 -30 c24 -26 37 -31 117 -40
181 -22 499 -116 650 -192 101 -51 143 -83 230 -175 76 -81 107 -95 178 -82
29 5 56 24 115 81 42 41 99 89 125 107 152 104 530 234 756 261 98 12 136 25
147 48 8 18 5 1277 -3 1297 -8 22 -53 35 -118 35 l-65 0 0 90 c0 106 9 101
-133 70 -201 -45 -435 -137 -555 -219 -95 -64 -88 -70 -91 80 -3 205 -19 258
-93 310 -48 34 -159 38 -218 7z m164 -110 c11 -21 18 -40 15 -42 -2 -2 -44 -5
-94 -7 l-90 -4 3 25 c1 14 14 35 28 48 21 18 36 22 72 20 42 -3 48 -6 66 -40z
m76 -169 l0 -32 -92 7 c-50 3 -111 6 -135 6 -39 0 -43 2 -43 25 l0 25 135 0
135 0 0 -31z m-803 -44 c132 -44 264 -109 380 -188 l92 -62 1 -448 0 -447 63
-113 c98 -173 131 -227 137 -227 4 0 20 26 37 58 17 31 58 108 92 171 l61 113
0 449 c0 257 4 449 9 449 5 0 24 14 42 31 54 50 115 88 222 139 135 64 408
153 422 138 2 -2 5 -262 6 -578 l1 -575 -88 -21 c-374 -91 -669 -268 -773
-464 l-33 -61 -21 40 c-116 212 -351 364 -724 466 -76 21 -144 39 -150 41 -10
3 -13 126 -13 572 0 313 2 571 5 574 8 8 118 -19 232 -57z m803 -85 l0 -30
-135 0 c-135 0 -135 0 -135 23 0 13 3 27 7 30 3 4 64 7 135 7 l128 0 0 -30z
m-1127 -157 c4 -71 4 -309 1 -530 l-5 -402 23 -6 c13 -2 59 -12 102 -21 145
-29 503 -165 514 -195 2 -5 8 -9 14 -9 19 0 97 -61 103 -81 4 -11 9 -18 12
-16 7 7 82 -67 76 -75 -2 -5 0 -8 6 -8 6 0 13 -11 17 -25 4 -15 11 -22 18 -18
6 3 8 2 3 -2 -4 -5 3 -20 15 -34 13 -14 -14 8 -59 49 -46 41 -83 78 -83 84 0
5 -3 6 -6 3 -4 -4 -19 4 -35 17 -35 30 -212 116 -309 151 -106 38 -332 92
-417 100 l-73 7 0 569 0 569 38 0 39 0 6 -127z m1047 -382 c0 -406 1 -418 20
-436 11 -10 18 -20 16 -23 -3 -2 -18 11 -34 29 -28 31 -31 32 -60 20 -17 -7
-39 -22 -49 -33 -10 -11 -26 -24 -35 -29 -17 -9 -18 14 -18 443 l0 453 80 -3
80 -4 0 -417z m25 -545 c19 8 19 -1 -2 -32 -9 -14 -24 -40 -33 -57 -11 -21
-26 -33 -43 -35 -22 -3 -30 4 -53 49 -19 38 -23 54 -14 57 7 3 26 17 44 32
l31 28 28 -24 c15 -13 34 -21 42 -18z m960 -63 c19 -11 19 -12 -5 -16 -157
-31 -212 -44 -315 -74 -248 -72 -450 -179 -589 -312 -60 -57 -61 -47 -6 34 57
83 146 158 274 229 50 28 60 31 52 17 -4 -5 3 -7 15 -4 15 4 17 8 8 14 -9 5
-4 10 17 14 16 4 47 15 69 25 22 10 60 21 85 25 25 4 52 11 61 16 9 5 33 11
53 13 19 2 40 7 45 11 6 3 39 8 73 12 35 3 64 6 65 7 8 7 81 -1 98 -11z"></path>
<path d="M1707 3583 c-12 -11 -8 -50 6 -61 6 -5 50 -25 97 -43 83 -31 196 -80
312 -133 66 -30 71 -31 88 -11 23 28 1 56 -73 90 -155 71 -255 114 -325 139
-76 27 -94 30 -105 19z"></path>
<path d="M3110 3539 c-139 -56 -295 -129 -324 -151 -23 -18 -14 -58 13 -58 10
0 62 20 115 45 53 25 142 63 199 85 179 71 178 70 175 99 -5 40 -39 36 -178
-20z"></path>
<path d="M1707 3423 c-12 -11 -8 -50 6 -61 6 -5 23 -13 37 -17 39 -11 256
-103 346 -146 44 -22 85 -39 91 -39 19 0 35 28 28 50 -8 26 -121 80 -379 184
-90 36 -117 42 -129 29z"></path>
<path d="M3135 3390 c-55 -22 -109 -43 -120 -49 -11 -5 -68 -32 -127 -60 -103
-49 -130 -73 -113 -101 11 -18 41 -10 146 38 57 27 154 68 214 91 61 24 120
47 133 52 16 6 22 17 22 39 0 26 -3 30 -27 29 -16 0 -73 -18 -128 -39z"></path>
<path d="M1704 3256 c-15 -38 1 -50 144 -107 79 -31 187 -78 240 -104 94 -45
96 -46 115 -27 32 33 8 55 -130 117 -284 128 -357 152 -369 121z"></path>
<path d="M3175 3246 c-33 -13 -81 -33 -106 -44 -25 -12 -69 -30 -97 -41 -72
-29 -189 -88 -197 -101 -10 -16 5 -50 22 -50 8 0 67 23 129 51 63 28 170 72
237 99 116 47 122 51 125 80 3 27 1 30 -25 29 -15 0 -55 -11 -88 -23z"></path>
<path d="M1704 3105 c-14 -37 4 -60 68 -83 100 -38 226 -90 320 -134 86 -40
113 -43 124 -13 12 31 -22 53 -234 145 -100 43 -249 100 -262 100 -6 0 -13 -7
-16 -15z"></path>
<path d="M3110 3062 c-216 -87 -329 -142 -336 -164 -5 -18 10 -48 26 -48 4 0
51 20 103 45 53 25 98 45 101 45 3 0 29 11 58 24 29 13 78 33 109 44 100 35
114 44 114 77 0 19 -6 31 -15 32 -8 2 -80 -23 -160 -55z"></path>
<path d="M1700 2941 c-14 -28 13 -54 85 -81 33 -12 79 -31 102 -41 24 -11 47
-19 53 -19 6 0 18 -4 28 -9 9 -6 63 -31 120 -57 93 -43 104 -46 118 -32 29 29
8 57 -69 93 -175 81 -385 165 -411 165 -9 0 -20 -9 -26 -19z"></path>
<path d="M3185 2939 c-168 -66 -384 -169 -404 -192 -7 -10 -10 -25 -6 -37 9
-29 20 -26 192 54 138 64 235 103 280 113 30 7 45 27 41 55 -4 30 -37 32 -103
7z"></path>
<path d="M3225 2793 c-251 -94 -431 -176 -446 -205 -11 -20 3 -48 24 -48 5 0
60 23 121 51 61 28 167 73 235 99 122 47 147 64 135 93 -9 24 -26 26 -69 10z"></path>
<path d="M1696 2784 c-12 -31 14 -51 116 -88 100 -37 191 -75 311 -130 65 -30
100 -28 95 7 -2 12 -17 31 -35 43 -71 48 -407 184 -454 184 -15 0 -30 -7 -33
-16z"></path>
<path d="M3498 2483 c7 -3 16 -2 19 1 4 3 -2 6 -13 5 -11 0 -14 -3 -6 -6z"></path>
<path d="M3510 2088 c-54 -28 -80 -62 -87 -117 -19 -141 159 -227 261 -125 82
82 46 224 -64 254 -50 14 -60 13 -110 -12z m130 -47 c29 -21 54 -85 46 -118
-4 -12 -20 -35 -37 -52 -35 -35 -69 -40 -125 -16 -84 35 -77 168 11 206 27 12
75 3 105 -20z"></path>
<path d="M3530 1950 c0 -70 10 -87 30 -50 6 11 15 20 20 20 5 0 12 -9 15 -20
4 -11 15 -20 27 -20 15 0 18 4 12 18 -8 20 -8 43 2 90 6 31 5 33 -17 30 -21
-3 -24 -8 -23 -41 1 -30 -2 -37 -15 -35 -11 3 -15 12 -13 32 3 26 -10 45 -30
46 -5 0 -8 -31 -8 -70z"></path>
<path d="M2037 1643 c-3 -4 -2 -125 0 -268 l6 -260 43 4 44 3 0 48 c0 31 6 56
18 70 l18 22 39 -59 c56 -82 58 -83 114 -83 52 0 62 8 37 29 -8 7 -38 48 -66
91 -59 90 -62 73 28 178 l54 62 -55 0 -54 0 -59 -70 c-32 -38 -62 -70 -66 -70
-4 0 -8 68 -8 150 l0 150 -29 0 c-16 0 -36 3 -44 6 -8 3 -17 2 -20 -3z"></path>
<path d="M3187 1644 c-2 -3 -2 -47 1 -99 2 -52 2 -95 -1 -95 -4 0 -21 9 -39
20 -44 27 -73 25 -133 -8 -87 -47 -118 -124 -90 -219 34 -115 157 -167 240
-101 l26 20 6 -21 c4 -17 13 -21 47 -21 l41 0 -3 257 c-2 142 -4 258 -5 259
-6 4 -86 11 -90 8z m-26 -273 c31 -32 37 -68 19 -117 -15 -38 -38 -53 -82 -54
-49 0 -78 36 -78 97 0 36 6 50 29 74 18 17 40 29 56 29 16 0 38 -12 56 -29z"></path>
<path d="M3367 1622 c-21 -23 -22 -46 -1 -66 32 -32 94 -10 94 34 0 45 -62 66
-93 32z"></path>
<path d="M1892 1607 c-12 -13 -22 -30 -22 -39 0 -37 70 -64 98 -36 18 18 15
69 -5 84 -26 20 -47 17 -71 -9z"></path>
<path d="M2401 1604 c-24 -31 -15 -58 25 -76 48 -22 87 48 46 85 -26 24 -47
21 -71 -9z"></path>
<path d="M1240 1596 c0 -8 8 -42 19 -77 10 -35 29 -102 41 -149 12 -47 31
-115 41 -151 11 -36 19 -74 19 -83 0 -14 9 -17 52 -14 l51 3 27 110 c43 173
51 198 59 189 5 -5 25 -75 46 -156 l38 -148 47 0 c46 0 48 1 54 34 4 18 27
105 52 192 81 282 80 266 17 262 l-47 -3 -37 -160 -36 -160 -17 55 c-9 30 -28
103 -43 163 l-26 107 -47 0 -47 0 -33 -127 c-18 -71 -38 -141 -45 -158 l-12
-30 -11 40 c-5 22 -22 93 -37 158 l-27 117 -49 0 c-35 0 -49 -4 -49 -14z"></path>
<path d="M2546 1602 c-2 -4 -4 -114 -4 -244 l1 -236 111 -7 c133 -7 218 -4
228 10 4 6 8 27 8 48 l0 37 -125 0 -125 0 0 55 0 55 110 0 110 0 0 45 0 45
-110 0 -110 0 0 50 0 49 118 3 117 3 3 48 3 47 -165 0 c-91 0 -167 -3 -170 -8z"></path>
<path d="M3588 1593 c-37 -4 -37 -4 -40 -56 -3 -48 -5 -52 -30 -55 -25 -3 -28
-7 -28 -43 0 -37 2 -39 30 -39 l30 0 0 -102 c0 -85 4 -109 20 -136 26 -42 62
-56 120 -45 43 8 45 10 48 46 l3 37 -39 0 c-34 0 -41 4 -51 28 -7 16 -11 60
-9 98 l3 69 43 3 c42 3 42 3 42 43 0 39 0 39 -40 39 l-39 0 -3 57 c-3 61 -4
61 -60 56z"></path>
<path d="M1888 1473 c-15 -4 -18 -17 -18 -87 0 -46 3 -124 6 -174 l7 -92 50 0
50 0 -7 172 c-4 95 -8 173 -9 174 -8 5 -66 10 -79 7z"></path>
<path d="M3360 1302 c0 -98 2 -181 4 -183 3 -2 25 -3 50 -1 l46 4 0 142 c0 77
-3 158 -6 179 -6 36 -8 37 -50 37 l-44 0 0 -178z"></path>
<path d="M2392 1298 l3 -173 48 -3 47 -3 -2 173 -3 173 -48 3 -47 3 2 -173z"></path>
</g>
</svg>